<svg version="1.1" id="Layer_1" xmlns="http://www.w3.org/2000/svg" xmlns:xlink="http://www.w3.org/1999/xlink" x="0px" y="0px"
	 width="100%" viewBox="0 0 496 496" enable-background="new 0 0 496 496" xml:space="preserve">
<path fill="#000000" opacity="1.000000" stroke="none" 
	d="
M130.007874,233.723618 
	C138.932297,233.717133 147.358612,233.717133 155.784927,233.717133 
	C155.832199,234.299454 155.879486,234.881790 155.926758,235.464111 
	C130.323944,239.346909 103.690125,237.967194 79.202820,248.425766 
	C80.333351,252.486542 83.037857,252.894379 85.298691,253.653061 
	C92.900650,256.204163 100.810455,257.295227 108.734543,258.277802 
	C123.087685,260.057556 137.497482,261.048615 152.037643,260.993805 
	C144.815292,259.783508 137.602783,258.510315 130.368073,257.379059 
	C121.635765,256.013672 113.033875,254.182373 104.870010,250.690750 
	C103.067062,249.919662 100.741669,249.251511 100.946808,246.768219 
	C101.150276,244.305206 103.236778,243.325134 105.429375,242.697617 
	C116.596825,239.501389 128.159378,239.370346 139.575867,238.994766 
	C202.203720,236.934494 264.858826,237.460724 327.499725,238.136536 
	C349.620300,238.375198 371.814819,238.143280 393.865234,240.681931 
	C397.649628,241.117645 401.400757,241.969742 405.111786,242.860489 
	C406.909027,243.291870 408.674133,244.409698 408.925659,246.404678 
	C409.218475,248.727158 407.067230,249.360291 405.436951,250.054688 
	C394.137207,254.867615 382.062866,256.380249 370.080383,258.326721 
	C359.255310,260.085175 348.377441,261.355469 337.443665,262.203888 
	C364.985779,264.586273 423.869812,256.456360 430.343292,249.400345 
	C428.943817,246.450043 425.854187,246.227066 423.301971,245.470306 
	C410.011292,241.529419 396.281464,239.946075 382.573029,238.385056 
	C374.152435,237.426163 365.678986,236.935577 357.234039,236.181458 
	C355.969635,236.068542 354.539886,236.098755 353.731781,234.664459 
	C354.654907,233.255325 356.110779,233.760986 357.303497,233.752640 
	C376.784180,233.616470 396.257172,233.648987 415.586151,236.647949 
	C421.714752,237.598801 427.587921,239.322296 433.196930,241.956345 
	C436.583679,243.546814 439.046906,245.969681 439.181274,249.883514 
	C439.306549,253.531860 436.687500,255.542084 433.895264,257.180481 
	C426.406708,261.574463 418.022339,263.193359 409.609955,264.226654 
	C367.099426,269.448059 324.393921,271.019867 281.586151,271.562531 
	C251.424683,271.944824 221.275391,271.532959 191.142899,271.034027 
	C158.562347,270.494537 125.954895,268.920837 93.733566,263.283997 
	C88.158943,262.308746 82.632912,260.940155 77.580078,258.299103 
	C74.002380,256.429077 70.483810,254.246384 70.719444,249.382660 
	C70.942711,244.774155 74.442200,242.918427 77.973991,241.343445 
	C88.014008,236.866135 98.827995,235.873688 109.574120,234.812637 
	C116.190460,234.159348 122.862663,234.071716 130.007874,233.723618 
M220.809296,248.193420 
	C218.727448,247.212509 214.311508,248.137161 217.096329,243.176590 
	C211.531174,243.324921 206.292389,243.771271 201.396912,246.501816 
	C224.720718,253.402466 248.871475,253.378342 274.140350,255.403702 
	C272.283569,256.584717 271.905609,257.019745 271.486328,257.064087 
	C241.119492,260.275940 210.697784,259.641907 180.265244,258.187439 
	C216.043961,264.843262 320.858459,261.040863 336.037933,252.741547 
	C297.904480,253.670868 259.700562,252.958618 220.809296,248.193420 
M278.973785,245.756378 
	C274.771820,244.697525 270.064331,246.474503 265.981934,243.696198 
	C267.181580,241.909821 269.301361,242.622543 270.672943,241.370911 
	C263.350067,241.088348 256.362610,241.854996 248.968018,242.818222 
	C256.154022,249.483261 306.037109,250.489868 317.004395,245.808304 
	C304.727478,246.822510 292.310822,246.533188 278.973785,245.756378 
z"/>
<path fill="#000000" opacity="1.000000" stroke="none" 
	d="
M244.854660,204.135422 
	C246.179626,205.879318 247.289810,207.335678 248.417068,208.778702 
	C249.501968,210.167496 251.307831,211.087082 251.422836,213.450897 
	C249.113998,215.190247 247.110168,214.085876 245.125504,212.870773 
	C233.162445,205.546585 227.509460,194.053040 224.809647,180.967712 
	C221.251724,163.723282 224.097122,147.900925 236.478683,134.489120 
	C242.313995,128.168259 247.833679,121.555672 253.042603,113.840073 
	C257.128723,120.062607 259.647003,126.331253 265.177338,131.112671 
	C268.094666,122.508781 273.156525,115.449615 278.793671,107.051392 
	C284.187561,121.418510 296.004608,131.795258 295.255310,147.476517 
	C294.812958,156.734039 291.101685,164.694687 284.160522,172.227478 
	C282.273346,167.234268 283.580078,163.285629 284.856262,159.516479 
	C289.010590,147.246948 285.657227,136.356461 279.053375,125.129196 
	C275.554352,128.761917 272.056000,131.673599 267.236145,134.161575 
	C284.523041,153.865494 283.391296,174.944290 272.580353,196.612503 
	C269.564697,202.656723 265.405701,207.820236 258.406372,210.584244 
	C266.434052,198.064789 269.632965,184.617203 268.811798,170.030228 
	C267.975250,155.169586 262.665344,142.337280 252.991760,131.079102 
	C236.003510,150.111740 228.336288,179.263428 244.854660,204.135422 
z"/>
<path fill="#000000" opacity="1.000000" stroke="none" 
	d="
M249.577774,217.436508 
	C249.500641,220.331421 249.522614,220.462112 245.984070,222.532806 
	C234.751144,229.106125 222.443802,232.568192 209.668076,234.193253 
	C197.456390,235.746552 185.472885,234.619324 174.052765,229.438583 
	C160.685364,223.374451 151.624161,213.640274 147.724213,199.341507 
	C143.726044,184.682541 141.525299,169.779602 141.690262,154.561920 
	C141.704132,153.281479 141.380920,151.897522 142.322464,150.813004 
	C143.100266,150.379089 143.763840,150.699768 144.147980,151.205368 
	C150.655472,159.770309 160.091690,163.454224 169.824631,166.603638 
	C177.361954,169.042557 177.242874,167.191727 177.489258,177.795761 
	C169.715363,178.108231 162.806244,174.729263 154.662292,172.280930 
	C157.445786,190.925262 164.622360,205.932266 180.987106,215.160751 
	C199.873672,225.811356 219.770035,226.812561 240.234360,220.325119 
	C243.242996,219.371338 246.243439,218.391647 249.577774,217.436508 
z"/>
<path fill="#000000" opacity="1.000000" stroke="none" 
	d="
M348.596741,174.515808 
	C348.199158,170.350113 345.958862,172.796005 344.687714,173.210388 
	C338.402252,175.259460 332.169006,177.451706 325.518829,177.808014 
	C323.787415,170.663559 324.899994,168.486160 331.037506,166.829575 
	C342.084106,163.847992 352.587311,159.904526 360.254913,149.869339 
	C362.003113,153.660049 361.803833,157.082962 361.710144,160.151718 
	C361.375610,171.106033 360.741455,182.049408 358.241882,192.817963 
	C352.827423,216.144241 334.312897,231.895218 310.405823,234.468994 
	C293.754669,236.261627 278.777924,231.944016 264.329956,224.533493 
	C260.312500,222.472900 255.601608,221.457809 252.327164,217.493271 
	C296.715363,230.323914 334.011108,228.136856 348.596741,174.515808 
z"/>
<path fill="#000000" opacity="1.000000" stroke="none" 
	d="
M156.671341,343.715454 
	C156.913086,340.457886 154.050262,339.717651 152.436630,337.183472 
	C158.641434,337.183472 164.349365,337.183472 171.966599,337.183472 
	C165.182022,340.447968 166.350082,345.336975 166.337097,349.830597 
	C166.305374,360.819641 166.469238,371.811310 166.267670,382.796661 
	C166.195862,386.711212 167.513214,388.018372 171.426315,388.032257 
	C179.339706,388.060333 186.287857,386.360077 191.104401,379.464478 
	C191.563995,378.806519 192.168564,378.160034 193.145615,378.278870 
	C194.881775,385.637512 191.441742,390.365112 184.307587,390.369476 
	C157.168182,390.386108 130.028763,390.398468 102.889397,390.373779 
	C101.129539,390.372162 99.247276,390.798248 97.082619,389.197113 
	C102.735909,385.962860 101.592636,380.596039 101.619751,375.597382 
	C101.667610,366.773254 101.593719,357.948364 101.661369,349.124481 
	C101.694748,344.771088 101.923637,340.421631 97.305138,337.416962 
	C108.780998,336.296234 120.011986,336.507812 131.836945,337.356812 
	C126.255966,340.405487 127.364845,345.327423 127.361282,349.855896 
	C127.353294,360.012390 127.340935,370.169952 127.475571,380.325134 
	C127.573189,387.688721 128.192886,388.094788 135.648865,387.891968 
	C142.166870,387.714691 147.636810,385.471771 151.824051,380.352234 
	C152.521225,379.499817 153.023361,378.259308 154.635147,378.509888 
	C156.296661,381.414124 153.091843,384.064484 154.059067,387.266418 
	C157.187393,386.270447 156.703445,383.744629 156.708267,381.599396 
	C156.736404,369.111877 156.700027,356.624176 156.671341,343.715454 
M117.824005,382.894928 
	C117.818764,369.950500 117.827568,357.006042 117.795296,344.061676 
	C117.789520,341.744019 117.207504,339.538086 114.385139,339.465820 
	C111.332657,339.387695 111.146057,341.823151 111.140518,344.038422 
	C111.108139,356.982697 111.112976,369.927216 111.155365,382.871460 
	C111.162094,384.925140 111.505013,387.099213 114.044266,387.419983 
	C116.577698,387.739990 117.502449,385.966827 117.824005,382.894928 
z"/>
<path fill="#000000" opacity="1.000000" stroke="none" 
	d="
M155.814697,273.955994 
	C169.085434,275.291473 181.925583,274.740173 194.739136,274.762146 
	C244.881622,274.848145 295.025818,274.905121 345.166290,274.542572 
	C358.612396,274.445312 372.047272,272.820618 385.487854,271.905640 
	C387.450439,271.772064 389.436646,271.304108 391.411072,272.696228 
	C361.242920,278.648132 330.663940,281.298645 300.032990,283.205353 
	C269.274139,285.119995 238.481186,284.959747 207.689926,283.361298 
	C176.821045,281.758881 146.288116,277.376984 115.741386,272.669067 
	C128.976273,272.537415 142.133652,274.034119 155.814697,273.955994 
z"/>
<path fill="#000000" opacity="1.000000" stroke="none" 
	d="
M205.533813,195.456604 
	C215.377075,207.825912 229.356918,211.424911 244.907211,214.459290 
	C239.415817,218.104858 234.978226,216.934586 230.749756,216.302261 
	C218.242752,214.431992 206.436691,210.574387 196.508713,202.407776 
	C186.150513,193.887222 180.646683,182.843109 180.781876,169.337265 
	C180.942154,153.326874 186.413193,138.505264 191.760147,123.370186 
	C194.688446,131.149368 202.610397,136.872269 200.765518,146.157288 
	C198.714035,147.564270 197.493332,145.317291 195.772171,146.282425 
	C192.820618,163.697235 193.057007,180.578888 205.533813,195.456604 
z"/>
<path fill="#000000" opacity="1.000000" stroke="none" 
	d="
M317.226898,189.041870 
	C308.235962,204.801376 294.378571,212.192764 277.221619,214.275452 
	C272.773590,214.815414 268.309296,215.220047 263.857361,215.729675 
	C262.393768,215.897202 260.925964,216.312973 258.695251,214.176575 
	C275.334564,211.089127 290.679657,206.755325 300.590790,192.493790 
	C310.303314,178.518036 311.324127,162.909821 309.483459,146.273163 
	C305.631592,148.117203 303.312469,152.240372 297.966980,152.483612 
	C298.060730,140.438934 309.152252,133.994644 310.487762,122.251923 
	C312.021301,123.934006 312.650757,124.318604 312.812592,124.846542 
	C316.950348,138.344681 321.097168,151.856506 322.071625,166.052170 
	C322.617126,173.998581 321.158356,181.610245 317.226898,189.041870 
z"/>
<path fill="#000000" opacity="1.000000" stroke="none" 
	d="
M265.779510,362.853882 
	C270.246552,363.335358 272.128143,361.829803 271.740326,357.554688 
	C271.455627,354.416443 271.568207,351.226379 271.712250,348.068939 
	C271.896576,344.027313 271.951843,340.116486 266.197876,337.183136 
	C273.547272,336.276428 279.197205,336.672485 286.508759,336.788361 
	C279.743530,341.049866 281.390289,346.596588 281.338806,351.662903 
	C281.242401,361.154053 281.412201,370.648560 281.253510,380.138031 
	C281.191711,383.834503 281.526520,387.088287 285.415894,389.419525 
	C279.451355,390.573853 273.671753,390.481323 267.195526,390.076385 
	C270.949219,385.963074 273.306885,371.073547 271.465424,367.009155 
	C270.880188,365.717407 269.865906,365.420319 268.643951,365.417999 
	C263.315247,365.407837 257.986267,365.446075 252.657974,365.399719 
	C250.117004,365.377594 249.045853,366.603027 249.063599,369.064667 
	C249.097214,373.726807 249.226410,378.396179 249.018311,383.049255 
	C248.886597,385.994263 251.177094,387.267303 253.359543,389.766724 
	C246.939651,390.744934 241.321335,390.421021 234.206055,390.029785 
	C240.313431,385.817444 239.046204,380.515503 239.077530,375.566040 
	C239.138641,365.907745 239.073044,356.248718 239.128998,346.590363 
	C239.148849,343.165466 239.087082,339.858490 235.502609,337.271667 
	C241.178604,337.271667 246.854599,337.271667 252.699341,337.271667 
	C246.032608,344.387787 249.759369,352.893860 249.378815,360.785919 
	C249.277130,362.895203 251.672241,362.807892 253.322632,362.826782 
	C257.318817,362.872528 261.315765,362.850586 265.779510,362.853882 
z"/>
<path fill="#000000" opacity="1.000000" stroke="none" 
	d="
M97.350349,363.974487 
	C97.475983,370.046295 96.342484,375.364624 93.604355,380.273560 
	C90.036011,386.670837 84.189095,389.777466 77.211365,390.134674 
	C68.407173,390.585449 59.564110,390.288116 50.737888,390.271790 
	C50.156303,390.270721 49.575371,389.915802 48.040627,389.413330 
	C53.422390,386.668701 52.800453,382.289398 52.776478,378.040985 
	C52.721031,368.214264 52.689983,358.386322 52.787151,348.560272 
	C52.828468,344.382019 53.219898,340.205750 48.737309,337.130768 
	C61.529926,337.627594 74.517876,333.589508 86.438858,339.824921 
	C95.674896,344.655914 97.102188,354.033051 97.350349,363.974487 
M87.391357,360.027588 
	C87.140121,358.385498 86.903061,356.741119 86.635399,355.101715 
	C84.709251,343.304291 77.841614,337.965271 66.100426,338.994415 
	C63.737831,339.201508 62.348679,339.998230 62.352734,342.575287 
	C62.374722,356.551453 62.375168,370.527740 62.352543,384.503906 
	C62.348873,386.770325 63.343430,387.708069 65.633621,387.899414 
	C74.300957,388.623627 82.328133,383.794983 85.310669,375.562012 
	C87.013054,370.862762 87.895943,365.945038 87.391357,360.027588 
z"/>
<path fill="#000000" opacity="1.000000" stroke="none" 
	d="
M328.606567,349.719543 
	C332.372162,360.702271 331.931732,371.058380 326.327209,380.897583 
	C321.925812,388.624573 314.942474,391.863586 306.218842,391.296295 
	C298.078339,390.766937 292.047424,386.794464 288.472229,379.413910 
	C284.142883,370.476471 283.527557,361.192413 286.483093,351.733215 
	C289.472015,342.167145 296.688934,336.119781 305.388367,335.671417 
	C316.895813,335.078369 323.780151,339.164612 328.606567,349.719543 
M298.534454,344.134979 
	C293.417297,356.219269 293.849213,368.495239 297.769043,380.698059 
	C299.186859,385.112061 302.131531,388.583557 307.499603,388.724335 
	C313.109741,388.871460 316.161621,385.394592 317.833862,380.810333 
	C322.083649,369.160034 322.365692,357.278107 317.812744,345.687561 
	C314.061920,336.139069 305.158630,335.285187 298.534454,344.134979 
z"/>
<path fill="#000000" opacity="1.000000" stroke="none" 
	d="
M451.074524,376.347839 
	C451.724640,375.398132 452.067474,374.433197 453.112305,374.775970 
	C454.140991,375.113403 454.017334,376.059021 453.840179,376.862793 
	C453.017548,380.595825 452.150208,384.318970 451.304291,388.046875 
	C450.954437,389.588745 449.889130,390.091400 448.423157,390.311707 
	C445.697174,390.721375 413.178162,390.246918 409.588989,389.400787 
	C415.142639,386.267426 413.897217,381.402618 413.922333,376.889587 
	C413.977051,367.064606 413.927612,357.238770 414.026611,347.414368 
	C414.064392,343.661469 414.114197,340.017059 410.149689,338.107330 
	C411.001221,336.093811 412.508209,336.593536 413.708954,336.590454 
	C423.867279,336.564148 434.028473,336.742279 444.182739,336.545441 
	C447.776123,336.475800 449.307861,337.809570 449.721161,341.240265 
	C450.161224,344.892822 451.940552,348.379425 451.370117,352.383881 
	C448.784454,351.841766 448.668396,349.714813 447.909729,348.216248 
	C443.775299,340.049835 435.117950,336.416412 426.416534,339.176788 
	C424.368805,339.826416 424.019409,341.269867 423.994476,343.009583 
	C423.915680,348.504333 423.936188,354.001312 423.788574,359.493958 
	C423.724213,361.888367 424.773895,362.827942 427.050690,362.764618 
	C433.515228,362.584686 440.858337,364.633057 444.037598,355.487976 
	C445.719879,360.987122 445.400513,366.000977 444.435913,371.408783 
	C440.438049,364.667450 434.111511,365.457306 428.059387,365.358521 
	C425.448822,365.315979 423.917969,366.204773 423.943359,369.050903 
	C423.987915,374.046051 423.983185,379.041840 423.971924,384.037292 
	C423.965790,386.751465 425.314117,387.973938 427.988739,387.913544 
	C429.819397,387.872162 431.676453,387.731537 433.479767,387.962555 
	C442.520691,389.120819 448.161926,385.151855 451.074524,376.347839 
z"/>
<path fill="#000000" opacity="1.000000" stroke="none" 
	d="
M204.814728,136.229065 
	C207.842834,123.365913 214.140594,112.000519 216.165146,99.205437 
	C224.031235,102.596840 234.922897,122.557198 234.136612,131.958969 
	C227.238663,131.324005 226.027649,124.470673 221.659943,120.299103 
	C217.546509,128.755829 215.407532,137.148651 215.726151,146.033051 
	C215.923340,151.531647 217.275070,156.872147 219.510056,161.965942 
	C220.826248,164.965759 220.568253,168.084457 219.835236,171.215515 
	C209.522720,168.539536 202.972260,153.360046 204.814728,136.229065 
z"/>
<path fill="#000000" opacity="1.000000" stroke="none" 
	d="
M379.544739,379.404846 
	C383.144257,385.046692 387.595825,388.675293 394.291443,388.736420 
	C398.026794,388.770538 400.902557,387.132141 402.225616,383.773560 
	C403.590912,380.307678 403.087036,376.729919 400.028564,374.217621 
	C397.604401,372.226288 394.878998,370.578094 392.187805,368.941193 
	C388.780182,366.868591 385.168488,365.120453 381.829468,362.948456 
	C375.937622,359.115845 373.443054,353.638336 374.890503,346.657318 
	C376.014252,341.237701 381.641235,336.681030 388.541046,335.855713 
	C392.480438,335.384521 396.468292,335.393738 400.428436,336.423523 
	C409.049286,338.665283 411.747559,343.225372 409.449707,352.241913 
	C406.983826,352.236206 406.945557,349.929352 406.049591,348.537018 
	C403.407166,344.430817 400.589752,340.529053 395.818481,338.675110 
	C391.394073,336.955872 386.810608,338.123016 384.671204,341.514526 
	C382.092194,345.602997 383.479553,349.237030 386.363708,352.410431 
	C389.309601,355.651855 393.203888,357.660370 396.993134,359.751343 
	C401.070282,362.001099 405.279999,364.051758 408.517639,367.538330 
	C414.798401,374.301941 413.286255,384.609558 405.013641,388.618073 
	C395.296112,393.326599 385.555695,392.137970 376.359192,386.933136 
	C372.438965,384.714447 372.430786,378.578491 375.999512,372.566284 
	C377.901978,374.420105 378.041748,377.087585 379.544739,379.404846 
z"/>
<path fill="#000000" opacity="1.000000" stroke="none" 
	d="
M369.622803,336.598328 
	C371.764343,336.807098 373.656342,335.849701 375.860474,337.690399 
	C368.015350,340.552734 370.183502,347.055145 370.042511,352.708374 
	C369.855804,360.195160 370.355530,367.736420 369.632385,375.163971 
	C368.416107,387.657166 359.936462,393.485718 347.571777,391.073090 
	C337.708191,389.148499 332.932465,383.524689 332.794708,373.340179 
	C332.675385,364.515259 332.778137,355.687439 332.758881,346.860962 
	C332.751221,343.356171 333.380737,339.557129 327.873016,338.346252 
	C328.234558,337.966339 328.596100,337.586395 328.957642,337.206482 
	C334.789886,337.206482 340.622162,337.206482 348.292145,337.206482 
	C340.908081,340.614502 342.393280,346.069183 342.354431,351.010834 
	C342.291626,359.004242 342.268738,366.999573 342.373199,374.992249 
	C342.478485,383.046967 346.272888,387.913696 352.757263,388.618378 
	C359.318939,389.331451 365.538330,384.543549 366.805054,377.237396 
	C368.665375,366.507446 367.482727,355.654205 367.481659,344.856628 
	C367.481201,340.259521 363.124268,339.625977 359.370728,337.920319 
	C362.844971,335.489532 366.184418,337.102051 369.622803,336.598328 
z"/>
<path fill="#000000" opacity="1.000000" stroke="none" 
	d="
M195.688416,390.313965 
	C193.554001,389.989319 192.492737,389.121460 194.389999,387.880341 
	C197.388626,385.918732 197.616318,383.069092 197.620163,380.025604 
	C197.634415,368.730194 197.507706,357.432617 197.706924,346.140656 
	C197.772324,342.433624 196.249405,339.902710 192.288803,337.267609 
	C199.157379,336.183319 204.782578,336.668518 212.085007,336.845428 
	C205.810394,340.875580 207.130539,346.000336 207.109314,350.763702 
	C207.067139,360.231689 207.139526,369.700287 207.085770,379.168182 
	C207.064148,382.977692 206.724884,386.823975 211.684921,389.401398 
	C205.856171,391.026825 200.937592,390.096954 195.688416,390.313965 
z"/>
<path fill="#000000" opacity="1.000000" stroke="none" 
	d="
M261.859619,115.188972 
	C252.224991,102.359062 251.281998,103.257195 242.518280,116.142929 
	C241.066605,118.277390 240.944122,121.193779 238.579773,123.154594 
	C235.845978,120.599792 235.538132,117.716354 236.300720,114.508217 
	C237.247574,110.524826 239.367416,107.158249 241.896881,104.049576 
	C245.131927,100.073708 248.218109,95.997772 250.644913,91.518906 
	C263.460175,97.748856 272.132507,115.589905 265.746368,122.312340 
	C263.359833,120.663033 263.703552,117.518188 261.859619,115.188972 
z"/>
</svg>