<svg xmlns="http://www.w3.org/2000/svg" viewBox="0 0 500 500"><path fill="none" stroke="#e79d85" stroke-width="2" d="M290.6 261.34c-1.95 10.34-2.29 23.45 4.61 31.69 6.2 7.4 15.3 8.74 24.13 5.13a.57.57 0 0 1 .73.76c-7.1 16.17-13.55 33.08-16.89 50.57-2.86 15-4.31 43.67 18.51 41.81 7.89-.64 9.31-5.6 7.76-12.75-2.7-12.45-4.27-22.43-1.59-34.94q7.16-33.34 19.12-59.37 15.31-33.29 42.88-83.99c2.91-5.35 2.62-11.68 1.81-17.54q-.07-.55-.6-.73c-10.19-3.54-15.08 1.46-19.92 10.09q-17.26 30.82-34.47 61.67c-3.7 6.64-11.93 22.41-21.47 18.7-15.83-6.15 11.29-66.19 16.39-76.44 3.33-6.68 6-13.48-1.05-18.07-12.52-8.15-19.81 8.07-23.95 16.43-5.92 11.98-11.78 24.4-18.42 35.48q-12.83 21.42-27.5 41.65c-.88 1.22-2.08 2.3-3.13 3.33q-.35.34-.84.39c-7.11.75 9.37-62.3 10.99-68.25 2.16-7.87.44-16.07-9.18-16.98-7.17-.69-11.59 3.87-15.76 9.03-14.49 17.95-27.14 37.15-39.81 56.6a1.19 1.17-80.9 0 1-.65.48c-2.26.65-1.75-2.48-1.41-3.7q8.26-29.28 17.73-58.19c5.35-16.35-13.29-19-20.81-8.6q-19.28 26.66-38.67 53.25-1.48 2.03-3.38 2.97a1.07 1.06 77.1 0 1-1.54-.97q.03-2.12.32-3.84 2.89-16.86 5.76-33.72c1.94-11.4 3.42-30.26-14.07-27.33-14.52 2.44-23.44 17.72-28.61 30.34-2.23 5.44-3.55 11.59 2.09 14.9 4.62 2.72 10.03 1.63 12.87-3.1 2.14-3.56 4.72-9.7 8.64-11.48a1.11 1.1 78.5 0 1 1.56 1.04q-.03 1.2-.35 2.57-8.71 36.51-17.32 73.03-2.11 8.95-2.16 10.36c-.43 11.35 14.33 16.72 20.41 6.72 11.72-19.29 23.34-38.06 37.72-55.81a.94.93 68.5 0 1 1.65.72q-2.96 21.75-6.06 44.06c-1.06 7.57-1.33 13.45 6.98 15.53 6.73 1.69 11.83-2.41 15.42-7.52 12.81-18.28 26.86-35.4 38.38-54.6q.37-.61.84-.79a.36.35-6.1 0 1 .48.38q-3.33 24.07-4.4 48.13c-.63 14.23 12.53 20.38 23.69 11.86q4.33-3.31 7.84-8.18 11.97-16.61 24.31-32.96.57-.75.39.18" vector-effect="non-scaling-stroke"/><path fill="#ce3a0b" d="M0 0h500v500H0V0Zm290.6 261.34c-1.95 10.34-2.29 23.45 4.61 31.69 6.2 7.4 15.3 8.74 24.13 5.13a.57.57 0 0 1 .73.76c-7.1 16.17-13.55 33.08-16.89 50.57-2.86 15-4.31 43.67 18.51 41.81 7.89-.64 9.31-5.6 7.76-12.75-2.7-12.45-4.27-22.43-1.59-34.94q7.16-33.34 19.12-59.37 15.31-33.29 42.88-83.99c2.91-5.35 2.62-11.68 1.81-17.54q-.07-.55-.6-.73c-10.19-3.54-15.08 1.46-19.92 10.09q-17.26 30.82-34.47 61.67c-3.7 6.64-11.93 22.41-21.47 18.7-15.83-6.15 11.29-66.19 16.39-76.44 3.33-6.68 6-13.48-1.05-18.07-12.52-8.15-19.81 8.07-23.95 16.43-5.92 11.98-11.78 24.4-18.42 35.48q-12.83 21.42-27.5 41.65c-.88 1.22-2.08 2.3-3.13 3.33q-.35.34-.84.39c-7.11.75 9.37-62.3 10.99-68.25 2.16-7.87.44-16.07-9.18-16.98-7.17-.69-11.59 3.87-15.76 9.03-14.49 17.95-27.14 37.15-39.81 56.6a1.19 1.17-80.9 0 1-.65.48c-2.26.65-1.75-2.48-1.41-3.7q8.26-29.28 17.73-58.19c5.35-16.35-13.29-19-20.81-8.6q-19.28 26.66-38.67 53.25-1.48 2.03-3.38 2.97a1.07 1.06 77.1 0 1-1.54-.97q.03-2.12.32-3.84 2.89-16.86 5.76-33.72c1.94-11.4 3.42-30.26-14.07-27.33-14.52 2.44-23.44 17.72-28.61 30.34-2.23 5.44-3.55 11.59 2.09 14.9 4.62 2.72 10.03 1.63 12.87-3.1 2.14-3.56 4.72-9.7 8.64-11.48a1.11 1.1 78.5 0 1 1.56 1.04q-.03 1.2-.35 2.57-8.71 36.51-17.32 73.03-2.11 8.95-2.16 10.36c-.43 11.35 14.33 16.72 20.41 6.72 11.72-19.29 23.34-38.06 37.72-55.81a.94.93 68.5 0 1 1.65.72q-2.96 21.75-6.06 44.06c-1.06 7.57-1.33 13.45 6.98 15.53 6.73 1.69 11.83-2.41 15.42-7.52 12.81-18.28 26.86-35.4 38.38-54.6q.37-.61.84-.79a.36.35-6.1 0 1 .48.38q-3.33 24.07-4.4 48.13c-.63 14.23 12.53 20.38 23.69 11.86q4.33-3.31 7.84-8.18 11.97-16.61 24.31-32.96.57-.75.39.18Z"/><path fill="#fff" d="M290.21 261.16q-12.34 16.35-24.31 32.96-3.51 4.87-7.84 8.18c-11.16 8.52-24.32 2.37-23.69-11.86q1.07-24.06 4.4-48.13a.36.35-6.1 0 0-.48-.38q-.47.18-.84.79c-11.52 19.2-25.57 36.32-38.38 54.6-3.59 5.11-8.69 9.21-15.42 7.52-8.31-2.08-8.04-7.96-6.98-15.53q3.1-22.31 6.06-44.06a.94.93 68.5 0 0-1.65-.72c-14.38 17.75-26 36.52-37.72 55.81-6.08 10-20.84 4.63-20.41-6.72q.05-1.41 2.16-10.36 8.61-36.52 17.32-73.03.32-1.37.35-2.57a1.11 1.1 78.5 0 0-1.56-1.04c-3.92 1.78-6.5 7.92-8.64 11.48-2.84 4.73-8.25 5.82-12.87 3.1-5.64-3.31-4.32-9.46-2.09-14.9 5.17-12.62 14.09-27.9 28.61-30.34 17.49-2.93 16.01 15.93 14.07 27.33q-2.87 16.86-5.76 33.72-.29 1.72-.32 3.84a1.07 1.06 77.1 0 0 1.54.97q1.9-.94 3.38-2.97 19.39-26.59 38.67-53.25c7.52-10.4 26.16-7.75 20.81 8.6q-9.47 28.91-17.73 58.19c-.34 1.22-.85 4.35 1.41 3.7a1.19 1.17-80.9 0 0 .65-.48c12.67-19.45 25.32-38.65 39.81-56.6 4.17-5.16 8.59-9.72 15.76-9.03 9.62.91 11.34 9.11 9.18 16.98-1.62 5.95-18.1 69-10.99 68.25q.49-.05.84-.39c1.05-1.03 2.25-2.11 3.13-3.33q14.67-20.23 27.5-41.65c6.64-11.08 12.5-23.5 18.42-35.48 4.14-8.36 11.43-24.58 23.95-16.43 7.05 4.59 4.38 11.39 1.05 18.07-5.1 10.25-32.22 70.29-16.39 76.44 9.54 3.71 17.77-12.06 21.47-18.7q17.21-30.85 34.47-61.67c4.84-8.63 9.73-13.63 19.92-10.09q.53.18.6.73c.81 5.86 1.1 12.19-1.81 17.54q-27.57 50.7-42.88 83.99-11.96 26.03-19.12 59.37c-2.68 12.51-1.11 22.49 1.59 34.94 1.55 7.15.13 12.11-7.76 12.75-22.82 1.86-21.37-26.81-18.51-41.81 3.34-17.49 9.79-34.4 16.89-50.57a.57.57 0 0 0-.73-.76c-8.83 3.61-17.93 2.27-24.13-5.13-6.9-8.24-6.56-21.35-4.61-31.69q.18-.93-.39-.18Z"/></svg>